<svg xmlns="http://www.w3.org/2000/svg" width="1019" height="529" fill="none"><path fill="#3E8BF6" d="M0 0h1019v529H0z"/><path fill="#fff" d="M453.138 242.709c-16.865 0-28.836 11.86-28.836 28.399 0 17.302 13.168 28.291 29.924 28.291 7.896 0 18.298-2.539 24.075-9.697.594-.736.561-1.797-.114-2.462l-5.466-5.382c-.693-.683-1.815-.703-2.506-.018-4.46 4.419-10.151 6.134-15.337 6.134-8.052 0-14.799-4.462-15.668-13.492h40.675a.9.9 0 0 0 .897-.772c.14-1.06.211-2.161.211-3.473 0-8.269-2.938-15.016-7.944-19.911-4.896-4.897-11.86-7.618-19.911-7.618v.001zm-13.82 22.741c.981-7.29 6.095-11.752 13.494-11.752 3.916 0 7.29 1.307 9.683 3.809 1.85 2.067 3.264 4.679 3.699 7.943h-26.876zm327.737-15.124c-4.895-4.897-11.859-7.618-19.911-7.618-16.865 0-28.835 11.861-28.835 28.4 0 17.301 13.167 28.291 29.923 28.291 7.897 0 18.299-2.539 24.076-9.697.594-.737.56-1.798-.114-2.462l-5.467-5.383c-.693-.682-1.814-.702-2.505-.017-4.46 4.419-10.151 6.134-15.337 6.134-8.052 0-14.799-4.462-15.668-13.492h40.675a.902.902 0 0 0 .897-.773c.14-1.059.211-2.16.211-3.472 0-8.268-2.938-15.016-7.945-19.911zm-33.731 15.123c.981-7.29 6.095-11.751 13.494-11.751 3.917 0 7.29 1.306 9.683 3.809 1.85 2.067 3.264 4.678 3.7 7.942h-26.877zm-184.287 21.52c.003-.024.001-.048.005-.071h-2.819v-40.735a2.256 2.256 0 0 0-2.257-2.257h-8.345a2.256 2.256 0 0 0-2.257 2.257v3.927c-4.785-4.559-11.196-7.382-18.586-7.382-16.322 0-27.747 12.187-27.747 28.4 0 15.994 11.318 28.291 27.747 28.291 8.377 0 14.796-3.482 19.367-8.703v2.198a5.417 5.417 0 0 0 5.417 5.417h9.125a2.257 2.257 0 0 0 2.257-2.257v-6.899c0-1.122-.834-2.012-1.907-2.186zm-31.866-.3c-8.921 0-15.342-6.857-15.342-15.561 0-8.813 6.421-15.668 15.342-15.668 8.052 0 15.125 5.657 15.125 15.668 0 9.902-7.073 15.561-15.125 15.561zm197.122.229h-4.064v-20.904c0-13.927-8.814-23.286-22.308-23.286-8.159 0-14.47 3.374-18.715 8.38-3.698-5.332-9.683-8.38-17.408-8.38-7.726 0-13.471 3.309-17.281 8.227v-4.88a2.257 2.257 0 0 0-2.257-2.257h-8.345a2.256 2.256 0 0 0-2.257 2.257v48.026a4.23 4.23 0 0 0 4.229 4.23h14.954a2.257 2.257 0 0 0 2.257-2.257v-6.899a2.256 2.256 0 0 0-2.257-2.257h-4.059v-19.706c0-7.073 4.569-11.535 11.207-11.535 6.53 0 10.337 4.462 10.337 11.535v26.889a4.23 4.23 0 0 0 4.23 4.23h13.37a2.247 2.247 0 0 0 2.246-2.247v-6.92a2.247 2.247 0 0 0-2.246-2.246h-2.475v-19.707c0-7.073 4.679-11.534 11.207-11.534 6.528 0 10.447 4.461 10.447 11.534v19.707l.005 5.64v1.543a4.23 4.23 0 0 0 4.23 4.229h14.954a2.256 2.256 0 0 0 2.257-2.257v-6.898a2.257 2.257 0 0 0-2.257-2.257h-.001zm-106.531-61.287h-12.161a2.257 2.257 0 0 0-2.257 2.257v6.899a2.256 2.256 0 0 0 2.257 2.257h.644v.012h1.811v11.114c-4.461-3.374-10.011-5.442-16.322-5.442-16.32 0-27.746 12.187-27.746 28.4 0 15.994 11.316 28.291 27.746 28.291 7.917 0 14.065-3.132 18.575-7.88v4.534a2.257 2.257 0 0 0 2.257 2.257h8.346a2.257 2.257 0 0 0 2.257-2.257v-7.585l.01-.002v-57.438a5.417 5.417 0 0 0-5.417-5.417zm-23.634 61.058c-8.923 0-15.342-6.856-15.342-15.561 0-8.813 6.419-15.668 15.342-15.668 8.052 0 15.123 5.657 15.123 15.668 0 9.902-7.071 15.561-15.123 15.561zm-241.171-47.97h-26.412c-9.28 0-17.029 6.497-18.984 15.186-1.953-8.689-9.702-15.186-18.982-15.186h-26.412a9.167 9.167 0 0 0-9.167 9.166v46.475a9.167 9.167 0 0 0 9.167 9.166h17.526l.001.001c18.278.056 24.271 4.348 27.159 13.12a.783.783 0 0 0 .709.468c.316 0 .59-.195.708-.468 2.887-8.772 8.882-13.064 27.159-13.12l.001-.001h17.527a9.167 9.167 0 0 0 9.167-9.166v-46.475a9.167 9.167 0 0 0-9.167-9.166zm-54.169 49.783c0 .54-.438.978-.979.978h-29.851a.978.978 0 0 1-.979-.978v-3.715c0-.541.438-.979.979-.979h29.851c.541 0 .979.438.979.979v3.715zm0-11.564a.979.979 0 0 1-.979.979h-29.851a.979.979 0 0 1-.979-.979v-3.715c0-.54.438-.978.979-.978h29.851c.541 0 .979.438.979.978v3.715zm0-11.563c0 .54-.438.978-.979.978h-29.851a.978.978 0 0 1-.979-.978v-3.715c0-.541.438-.979.979-.979h29.851c.541 0 .979.438.979.979v3.715zm49.356 23.127c0 .54-.438.978-.978.978h-29.852a.978.978 0 0 1-.978-.978v-3.715c0-.541.438-.979.978-.979h29.852c.54 0 .978.438.978.979v3.715zm0-11.564a.978.978 0 0 1-.978.979h-29.852a.978.978 0 0 1-.978-.979v-3.715c0-.54.438-.978.978-.978h29.852c.54 0 .978.438.978.978v3.715zm0-11.563c0 .54-.438.978-.978.978h-29.852a.978.978 0 0 1-.978-.978v-3.715c0-.541.438-.979.978-.979h29.852c.54 0 .978.438.978.979v3.715zm88.411-19.842c-1.768-1.191-5.924-3.201-13.48-2.805-6.848.359-12.188 3.592-15.778 9.359v-1.088l-.002-.041v-1.617a5.418 5.418 0 0 0-5.418-5.418h-11.798a2.257 2.257 0 0 0-2.257 2.258v7.128a2.256 2.256 0 0 0 2.257 2.257h2.08l-.878.001h1.215l.003.001H385v31.349h-4.054a2.237 2.237 0 0 0-2.236 2.236v6.942a2.235 2.235 0 0 0 2.235 2.235h23.224c1.235 0 2.235-1 2.235-2.234v-6.944a2.235 2.235 0 0 0-2.235-2.235h-4.045v-17.856c0-7.617 4.471-12.801 11.642-13.165 3.339-.17 5.7.34 7.148.828.403.136.824-.069 1.002-.455a30.924 30.924 0 0 1 6.726-9.433c.392-.375.361-1-.088-1.302l.001-.001z"/></svg>